# xmcd
#
# Track frame offsets:
#	150
#	29187
#	55040
#	79655
#	96632
#	117750
#	138865
#	159037
#	179752
#	198380
#
# Disc length: 2881 seconds
#
# Revision: 3
# Processed by: cddbd v1.5.2PL0 Copyright (c) Steve Scherf et al.
# Submitted via: EasyCDDAExtractor 15.3.0.1
#
DISCID=850b3f0a
DTITLE=Luis Angel - Del Corazon Del Hombre
DYEAR=1991
DGENRE=Latin
TTITLE0=Un Amor Que Termina Asi
TTITLE1=El Loco
TTITLE2=Pienso Solo En Ti
TTITLE3=Necesito
TTITLE4=Irresistible
TTITLE5=El Saco Del Amor
TTITLE6=Contigo Mi Amor
TTITLE7=Dime Quien Es
TTITLE8=Lluvia
TTITLE9=Que Le Voy A Hacer
EXTD=
EXTT0=
EXTT1=
EXTT2=
EXTT3=
EXTT4=
EXTT5=
EXTT6=
EXTT7=
EXTT8=
EXTT9=
PLAYORDER=
